
<svg width="60" height="20" viewBox="0 0 60 20" fill="none" xmlns="http://www.w3.org/2000/svg">
<path d="M7.84976 11.8622L7.04665 14.0306H1.34717V13.903H1.52852C1.76168 13.903 1.96893 13.8265 2.15028 13.6479C2.30572 13.4693 2.40934 13.2653 2.40934 13.0357V5.56117C2.40934 5.33158 2.30572 5.1275 2.15028 4.94893C1.96893 4.79587 1.76168 4.69383 1.52852 4.69383H1.34717V4.59179H4.35235V4.71934H4.171C3.93784 4.71934 3.73059 4.79587 3.54924 4.97444C3.36789 5.15301 3.29017 5.35709 3.29017 5.58668V13.6224H5.25908C5.93266 13.6224 6.4767 13.4438 6.8653 13.1122C7.17618 12.8571 7.46116 12.4234 7.69432 11.8367H7.84976V11.8622ZM17.5907 13.1122C17.8498 13.6224 18.2125 13.903 18.6529 13.903H18.7565V14.0306H15.9586V13.903H16.0622C16.2435 13.903 16.3731 13.8265 16.4767 13.6989C16.6062 13.5459 16.6062 13.3418 16.5285 13.1122L15.7772 11.3265H12.3316L11.5803 13.0867C11.4767 13.3418 11.5026 13.5459 11.6321 13.7244C11.7358 13.8775 11.8912 13.9285 12.0726 13.9285H12.1762V14.0306H9.5337V13.903H9.63732C10.0777 13.903 10.4404 13.6479 10.6995 13.1122L13.5492 7.14281L13.5751 7.09179L13.6011 7.04077L13.627 6.96424C13.6529 6.91322 13.6788 6.83669 13.7047 6.78566L13.8083 6.58158C13.886 6.40301 13.9378 6.24995 13.9897 6.1224C14.0415 5.96934 14.0674 5.84179 14.0933 5.76526H14.2228L17.5907 13.1122ZM15.6218 10.8928L14.0933 7.19383L12.513 10.8928H15.6218ZM34.5855 10.102L34.4301 12.2193C33.6011 13.5714 32.3057 14.2346 30.57 14.2346C29.1192 14.2346 27.9534 13.7755 27.0467 12.8826C26.1399 11.9642 25.6736 10.7908 25.6736 9.31117C25.6736 7.83158 26.114 6.65811 27.0207 5.76526C27.9275 4.8724 29.1451 4.41322 30.6477 4.41322C31.8653 4.41322 32.9534 4.71934 33.886 5.33158L34.171 7.24485H34.0415C33.8342 6.47954 33.4197 5.8673 32.7979 5.45913C32.2021 5.05097 31.4767 4.84689 30.6218 4.84689C29.4301 4.84689 28.4715 5.25505 27.7461 6.07138C27.0207 6.88771 26.684 7.98464 26.684 9.33668C26.684 10.6887 27.0467 11.7857 27.7461 12.602C28.4456 13.4183 29.3783 13.852 30.5441 13.8775C32.8757 13.8775 34.171 12.6275 34.456 10.153H34.5855V10.102ZM37.3834 14.0306V13.903H37.5648C37.8239 13.903 38.0311 13.8265 38.2125 13.6989C38.3938 13.5459 38.4974 13.3928 38.4974 13.1887V6.81117C38.4974 6.60709 38.3938 6.45403 38.2125 6.30097C38.0311 6.14791 37.7979 6.09689 37.5648 6.09689H37.3834V5.96934H40.4922V6.09689H40.3109C40.0518 6.09689 39.8446 6.17342 39.6632 6.30097C39.4819 6.42852 39.4042 6.60709 39.3783 6.81117V13.2142C39.3783 13.4183 39.4819 13.5714 39.6632 13.7244C39.8446 13.8775 40.0518 13.9285 40.3109 13.9285H40.4922L40.5182 14.0561H37.3834V14.0306ZM48.8083 5.91832C49.0674 5.91832 49.3524 5.89281 49.6891 5.84179C50 5.79077 50.2073 5.73975 50.3368 5.68873V7.21934H50.1814V7.01526C50.1814 6.83668 50.1296 6.65811 50 6.53056C49.8705 6.40301 49.715 6.32648 49.5078 6.32648H47.0207V13.1887C47.0207 13.3928 47.1244 13.5459 47.2798 13.6989C47.4353 13.8265 47.6166 13.903 47.8498 13.903H48.0052V14.0306H45.1814V13.903H45.3368C45.5441 13.903 45.7513 13.8265 45.9068 13.6989C46.0622 13.5459 46.1399 13.3928 46.1658 13.1887V6.32648H43.6788C43.4715 6.32648 43.2902 6.40301 43.1606 6.53056C43.0311 6.65811 42.9793 6.83668 42.9793 7.01526V7.21934H42.8239V5.68873C42.9534 5.73975 43.1606 5.79077 43.4715 5.84179C43.8083 5.89281 44.0933 5.91832 44.3523 5.91832H48.8083V5.91832ZM58.2384 14.0306H52.6684V13.903H52.8498C53.057 13.903 53.2643 13.8265 53.3938 13.6989C53.5492 13.5459 53.627 13.3928 53.6529 13.1887V6.78566C53.6529 6.58158 53.5751 6.42852 53.4197 6.27546C53.2643 6.14791 53.0829 6.07138 52.8498 6.07138H52.6684V5.94383H56.684C56.943 5.94383 57.2539 5.91832 57.5648 5.8673C57.8757 5.81628 58.0829 5.76526 58.2125 5.71424V7.24485H58.057V7.04077C58.057 6.8622 58.0052 6.68362 57.8757 6.55607C57.7461 6.42852 57.5907 6.35199 57.3834 6.35199H54.5337V9.77036H56.8653C57.228 9.77036 57.4353 9.56628 57.4353 9.20913V9.03056H57.5907V10.9183H57.4353V10.7397C57.4353 10.3826 57.2539 10.1785 56.9171 10.1785H54.5337V13.5969H56.684C57.2798 13.5969 57.772 13.4438 58.1347 13.1632C58.3938 12.9336 58.6529 12.5765 58.886 12.0918H59.0156L58.2384 14.0306ZM55.3368 4.08158C55.6477 3.29077 56.0104 1.83668 56.1658 0.867297L57.513 0.739746C57.2021 1.88771 56.6062 3.39281 56.2176 4.03056L55.3368 4.08158ZM11.0363 17.4234C11.2694 17.4234 11.4249 17.4744 11.5544 17.5765C11.684 17.6785 11.7617 17.8061 11.7617 17.9591C11.7617 18.1887 11.658 18.3673 11.4767 18.4693C11.2954 18.5714 11.0881 18.5714 10.8549 18.4693V18.4438H10.8808H10.9068C10.9845 18.4438 11.0363 18.4438 11.0881 18.4438C11.2954 18.4183 11.4249 18.3163 11.4767 18.1122C11.5026 18.0612 11.5026 18.0102 11.5026 17.9336C11.5026 17.8061 11.4508 17.704 11.3731 17.6275C11.2954 17.551 11.1658 17.5255 11.0104 17.5255H10.6995V19.1071C10.6995 19.1581 10.7254 19.1836 10.7513 19.2346C10.7772 19.2602 10.829 19.2857 10.8808 19.2857H10.9327V19.3112H10.2591V19.2857H10.3109C10.3627 19.2857 10.4145 19.2602 10.4404 19.2346C10.4663 19.2091 10.4922 19.1581 10.4922 19.1071V17.6275C10.4922 17.5765 10.4663 17.551 10.4404 17.4999C10.4145 17.4744 10.3627 17.4489 10.3109 17.4489H10.2591V17.4234H11.0363ZM13.6788 19.3112H12.3834V19.2857H12.4353C12.4871 19.2857 12.5389 19.2602 12.5648 19.2346C12.5907 19.2091 12.6166 19.1581 12.6166 19.1071V17.602C12.6166 17.551 12.5907 17.5255 12.5648 17.4744C12.5389 17.4489 12.4871 17.4234 12.4353 17.4234H12.3834V17.3979H13.3161C13.3679 17.3979 13.4456 17.3979 13.5233 17.3724C13.6011 17.3724 13.6529 17.3469 13.6788 17.3469V17.704H13.6529V17.653C13.6529 17.602 13.627 17.5765 13.6011 17.551C13.5751 17.5255 13.5233 17.4999 13.4974 17.4999H12.8239V18.2908H13.3679C13.4456 18.2908 13.4974 18.2397 13.4974 18.1632V18.1122H13.5233V18.5459H13.4974V18.4948C13.4974 18.4183 13.4456 18.3673 13.3679 18.3673H12.8239V19.1581H13.3161C13.4456 19.1581 13.5751 19.1326 13.6529 19.0561C13.7047 19.0051 13.7824 18.9285 13.8342 18.801H13.8601L13.6788 19.3112ZM15.2332 17.4234C15.4404 17.4234 15.5959 17.4744 15.6995 17.551C15.8031 17.653 15.8808 17.7551 15.8808 17.9336C15.8808 18.0612 15.829 18.1887 15.7513 18.2908C15.6477 18.3928 15.5441 18.4438 15.3886 18.4693C15.4145 18.4948 15.4663 18.5204 15.5182 18.5714C15.57 18.6224 15.5959 18.6734 15.6477 18.7244C15.6477 18.7244 15.6477 18.7499 15.6736 18.7499C15.6995 18.7755 15.7254 18.801 15.7513 18.8265C15.829 18.9285 15.8808 18.9795 15.9327 19.0561C16.0104 19.1326 16.0622 19.2091 16.114 19.2346C16.1658 19.2857 16.2435 19.3112 16.3213 19.3112V19.3367H16.2176C16.0622 19.3367 15.9327 19.3112 15.829 19.2346C15.7772 19.2091 15.7513 19.1836 15.7254 19.1581L15.6736 19.1071L15.6477 19.0561C15.6477 19.0306 15.57 18.954 15.4922 18.8265L15.4404 18.7499C15.4145 18.7244 15.4145 18.6989 15.3886 18.6989C15.3627 18.6479 15.3368 18.6224 15.3368 18.6224C15.2332 18.4948 15.1036 18.4183 15.0259 18.4183V18.3928H15.0518C15.0777 18.3928 15.0777 18.3928 15.1036 18.3928H15.1814H15.2591H15.3368C15.3886 18.3928 15.4404 18.3673 15.4663 18.3673C15.57 18.3418 15.6218 18.2397 15.6736 18.1377C15.6995 18.0867 15.6995 18.0357 15.6995 17.9591C15.6995 17.8316 15.6477 17.7551 15.57 17.6785C15.4922 17.602 15.3886 17.5765 15.2591 17.5765C15.2073 17.5765 15.1814 17.5765 15.1296 17.5765H14.8964V19.1581C14.8964 19.2091 14.9223 19.2346 14.9482 19.2857C14.9741 19.3112 15.0259 19.3367 15.0777 19.3367H15.1296V19.3622H14.4819V19.3367H14.5337C14.5855 19.3367 14.6114 19.3112 14.6632 19.2857C14.6891 19.2602 14.715 19.2091 14.715 19.1581V17.602C14.715 17.551 14.6891 17.5255 14.6632 17.4744C14.6373 17.4489 14.5855 17.4234 14.5337 17.4234H14.4819V17.3979H15.2332V17.4234ZM17.6943 17.4234C17.7461 17.4234 17.8239 17.4234 17.9016 17.3979C17.9793 17.3979 18.0311 17.3724 18.057 17.3724V17.7295H18.0311V17.6785C18.0311 17.6275 18.0052 17.602 17.9793 17.5765C17.9534 17.551 17.9016 17.5255 17.8757 17.5255H17.2021V18.3163H17.7461C17.8239 18.3163 17.8757 18.2653 17.8757 18.1887V18.1377H17.9016V18.5714H17.8757V18.5204C17.8757 18.4438 17.8239 18.3928 17.7461 18.3928H17.1762V19.0816C17.1762 19.1326 17.2021 19.1581 17.228 19.2091C17.2539 19.2346 17.3057 19.2602 17.3575 19.2602H17.4093V19.2857H16.7358V19.2602H16.7876C16.8394 19.2602 16.8912 19.2346 16.9171 19.2091C16.943 19.1836 16.9689 19.1326 16.9689 19.0816V17.602C16.9689 17.551 16.943 17.5255 16.9171 17.4744C16.8912 17.4489 16.8394 17.4234 16.7876 17.4234H16.7358V17.3979H17.6943V17.4234ZM20.6995 17.4234V17.4489H20.6477C20.5959 17.4489 20.57 17.4489 20.5441 17.4744C20.5182 17.4999 20.4922 17.5255 20.4922 17.5765V18.6479C20.4922 18.8775 20.4145 19.0306 20.285 19.1581C20.1296 19.2857 19.9482 19.3367 19.6891 19.3367C19.4301 19.3367 19.2487 19.2857 19.0933 19.1581C18.9378 19.0306 18.886 18.852 18.886 18.6479V17.5765C18.886 17.551 18.8601 17.4999 18.8342 17.4744C18.8083 17.4489 18.7565 17.4489 18.7306 17.4489H18.6788V17.4234H19.2746V17.4489H19.2228C19.171 17.4489 19.1451 17.4489 19.1192 17.4744C19.0933 17.4999 19.0674 17.5255 19.0674 17.5765V18.5969C19.0674 18.801 19.1192 18.954 19.2228 19.0816C19.3264 19.2091 19.4819 19.2602 19.6632 19.2602C19.8705 19.2602 20.0259 19.2091 20.1296 19.0816C20.2591 18.9795 20.3109 18.8265 20.3109 18.6224V17.5765C20.3109 17.5255 20.285 17.4999 20.2591 17.4744C20.2332 17.4489 20.2073 17.4489 20.1555 17.4489H20.1036V17.4234H20.6995V17.4234ZM23.6529 19.1071C23.6529 19.1581 23.6788 19.2091 23.7306 19.2346C23.7824 19.2602 23.8083 19.2857 23.886 19.2857H23.9378V19.3112H23.2643V19.2857H23.3161C23.342 19.2857 23.3679 19.2857 23.3938 19.2602C23.4197 19.2346 23.4197 19.2091 23.4197 19.1836L23.2384 17.8571L22.6425 19.0306C22.5907 19.1581 22.5389 19.2602 22.5389 19.3622H22.513L21.7358 17.9081L21.5803 19.1836C21.5803 19.2091 21.5803 19.2346 21.6062 19.2602C21.6321 19.2857 21.658 19.2857 21.684 19.2857H21.7358V19.3112H21.1399V19.2857H21.1917C21.2435 19.2857 21.2954 19.2602 21.3472 19.2346C21.399 19.2091 21.4249 19.1581 21.4249 19.1071L21.684 17.3979H21.7099L22.5648 19.0051L23.3679 17.3979H23.3938L23.6529 19.1071ZM25.7254 19.3112H24.4301V19.2857H24.4819C24.5337 19.2857 24.5855 19.2602 24.6114 19.2346C24.6373 19.2091 24.6632 19.1581 24.6632 19.1071V17.602C24.6632 17.551 24.6373 17.5255 24.6114 17.4744C24.5855 17.4489 24.5337 17.4234 24.4819 17.4234H24.4301V17.3979H25.3627C25.4145 17.3979 25.4922 17.3979 25.57 17.3724C25.6477 17.3724 25.6995 17.3469 25.7254 17.3469V17.704H25.6995V17.653C25.6995 17.602 25.6736 17.5765 25.6477 17.551C25.6218 17.5255 25.57 17.4999 25.5441 17.4999H24.8705V18.2908H25.4145C25.4922 18.2908 25.5441 18.2397 25.5441 18.1632V18.1122H25.57V18.5459H25.5441V18.4948C25.5441 18.4183 25.4922 18.3673 25.4145 18.3673H24.8705V19.1581H25.3627C25.4922 19.1581 25.6218 19.1326 25.6995 19.0561C25.7513 19.0051 25.829 18.9285 25.8808 18.801H25.9068L25.7254 19.3112ZM29.4301 18.1122C29.3264 18.1122 29.3005 18.1632 29.3005 18.2653C29.3523 18.5204 29.3264 18.75 29.1969 18.954L29.2487 19.0051L29.3264 19.0561C29.3783 19.0816 29.4301 19.1326 29.456 19.1581C29.5596 19.2346 29.6632 19.2602 29.741 19.2602V19.2857H29.6114C29.5596 19.2857 29.5078 19.2857 29.456 19.2857C29.3005 19.2602 29.171 19.2091 29.0674 19.1071C28.9119 19.2602 28.7306 19.3367 28.4715 19.3367C28.1606 19.3367 27.9275 19.2857 27.7461 19.1326C27.5648 19.0051 27.4871 18.8265 27.4871 18.5969C27.4871 18.3418 27.6166 18.1377 27.8757 18.0102C27.7979 17.8826 27.7461 17.7295 27.7461 17.5765C27.7461 17.4234 27.7979 17.2959 27.9275 17.1938C28.057 17.0918 28.2125 17.0408 28.3938 17.0408C28.627 17.0408 28.8083 17.1173 28.9378 17.2704L28.886 17.6275H28.8601C28.8601 17.4744 28.8083 17.3724 28.7306 17.2704C28.6529 17.1938 28.5492 17.1428 28.3938 17.1428C28.2643 17.1428 28.1606 17.1938 28.0829 17.2704C28.0052 17.3469 27.9534 17.4489 27.9534 17.5765C27.9534 17.704 28.0052 17.8316 28.0829 17.9336C28.1606 18.0357 28.2902 18.1632 28.4715 18.3163L28.5233 18.3673L28.5751 18.4183C28.627 18.4693 28.6788 18.4948 28.7047 18.5459C28.8083 18.6479 28.9378 18.75 29.0415 18.8265C29.1451 18.6224 29.1451 18.4183 29.0415 18.2397C28.9897 18.1377 28.9119 18.0867 28.8342 18.0867H28.7824V18.0612H29.4301V18.1122ZM28.9897 19.0306C28.7565 18.8265 28.5492 18.6479 28.3679 18.5204C28.1606 18.3418 28.0311 18.2142 27.9534 18.1122C27.8239 18.2397 27.7461 18.4183 27.7461 18.6224C27.7461 18.8265 27.8239 18.9795 27.9534 19.0816C28.0829 19.2091 28.2643 19.2602 28.4974 19.2602C28.7047 19.2346 28.8601 19.1581 28.9897 19.0306ZM33.057 18.5204L33.0311 18.954C32.9534 19.0816 32.8239 19.1836 32.6684 19.2602C32.513 19.3367 32.3316 19.3622 32.1503 19.3622C31.8135 19.3622 31.5803 19.2602 31.3731 19.1071C31.1917 18.9285 31.0881 18.6989 31.0881 18.3928C31.0881 18.0867 31.1917 17.8571 31.3731 17.6785C31.5544 17.5 31.8135 17.4234 32.1503 17.4234C32.4353 17.4234 32.6943 17.4744 32.9016 17.602L32.9793 18.0612H32.9534C32.8498 17.704 32.5907 17.5255 32.1503 17.5255C31.8912 17.5255 31.684 17.602 31.5544 17.7551C31.399 17.9081 31.3213 18.1377 31.3213 18.4183C31.3213 18.6989 31.399 18.903 31.5544 19.0561C31.7099 19.2091 31.9171 19.2857 32.1503 19.2857C32.4093 19.2857 32.6166 19.2346 32.7461 19.1071C32.9016 18.9795 33.0052 18.801 33.0311 18.5459H33.057V18.5204ZM35.4922 17.653C35.6995 17.8316 35.8031 18.0867 35.8031 18.3673C35.8031 18.6479 35.6995 18.903 35.4922 19.0816C35.285 19.2602 35.0259 19.3622 34.741 19.3622C34.4301 19.3622 34.1969 19.2602 33.9897 19.0816C33.7824 18.903 33.6788 18.6479 33.6788 18.3673C33.6788 18.0867 33.7824 17.8316 33.9897 17.653C34.1969 17.4744 34.456 17.3724 34.741 17.3724C35.0518 17.3724 35.285 17.4744 35.4922 17.653ZM35.3368 19.0051C35.4922 18.8265 35.57 18.6224 35.57 18.3673C35.57 18.1122 35.4922 17.8826 35.3368 17.7295C35.1814 17.5765 34.9741 17.4744 34.741 17.4744C34.5078 17.4744 34.3005 17.551 34.1451 17.7295C33.9897 17.9081 33.9119 18.1122 33.9119 18.3673C33.9119 18.6224 33.9897 18.852 34.1451 19.0051C34.3005 19.1581 34.5078 19.2602 34.741 19.2602C34.9741 19.2602 35.1814 19.1836 35.3368 19.0051ZM37.4612 18.4948C37.5648 18.5714 37.6166 18.6734 37.6166 18.8265C37.6166 18.954 37.5648 19.0816 37.4612 19.1836C37.3575 19.2857 37.228 19.3367 37.0467 19.3367C36.943 19.3367 36.8394 19.3367 36.7358 19.3112C36.6321 19.2857 36.5544 19.2346 36.4767 19.2091C36.4767 19.1581 36.4767 19.1071 36.4767 19.0306C36.4767 18.954 36.5026 18.8775 36.5026 18.8265H36.5285C36.5026 18.954 36.5544 19.0816 36.6321 19.1581C36.7099 19.2346 36.8394 19.2857 36.9689 19.2602C37.0985 19.2602 37.2021 19.2346 37.2798 19.1581C37.3575 19.1071 37.3834 19.0051 37.3834 18.903C37.3834 18.801 37.3575 18.7244 37.2798 18.6479L36.6321 18.1632C36.5285 18.0867 36.4767 17.9591 36.4767 17.8316C36.4767 17.704 36.5285 17.602 36.6321 17.4999C36.7358 17.3979 36.8653 17.3724 37.0207 17.3724C37.1503 17.3724 37.2539 17.3724 37.3316 17.3979H37.4353V17.7295H37.4093C37.4093 17.551 37.2798 17.4489 37.0467 17.4489C36.943 17.4489 36.8394 17.4744 36.7876 17.5255C36.7099 17.5765 36.684 17.653 36.684 17.7295C36.684 17.8316 36.7358 17.9081 36.8135 17.9846L37.4612 18.4948ZM40.5959 19.1071C40.5959 19.1581 40.6218 19.2091 40.6736 19.2346C40.7254 19.2602 40.7513 19.2857 40.829 19.2857H40.8808V19.3112H40.2073V19.2857H40.2591C40.285 19.2857 40.3109 19.2857 40.3368 19.2602C40.3627 19.2346 40.3627 19.2091 40.3627 19.1836L40.2073 17.8826L39.6114 19.0561C39.5596 19.1836 39.5078 19.2857 39.5078 19.3877H39.4819L38.7047 17.9336L38.5492 19.2091C38.5492 19.2346 38.5492 19.2602 38.5751 19.2857C38.6011 19.3112 38.627 19.3112 38.6529 19.3112H38.7047V19.3367H38.1088V19.3112H38.1606C38.2125 19.3112 38.2643 19.2857 38.3161 19.2602C38.3679 19.2346 38.3938 19.1836 38.3938 19.1326L38.6529 17.4234H38.6788L39.5337 19.0306L40.3368 17.4234H40.3627L40.5959 19.1071ZM42.6943 19.3112H41.399V19.2857H41.4508C41.5026 19.2857 41.5544 19.2602 41.5803 19.2346C41.6062 19.2091 41.6321 19.1581 41.6321 19.1071V17.602C41.6321 17.551 41.6062 17.5255 41.5803 17.4744C41.5544 17.4489 41.5026 17.4234 41.4508 17.4234H41.399V17.3979H42.3316C42.3834 17.3979 42.4612 17.3979 42.5389 17.3724C42.6166 17.3724 42.6684 17.3469 42.6943 17.3469V17.704H42.6684V17.653C42.6684 17.602 42.6425 17.5765 42.6166 17.551C42.5907 17.5255 42.5389 17.4999 42.513 17.4999H41.8394V18.2908H42.3834C42.4612 18.2908 42.513 18.2397 42.513 18.1632V18.1122H42.5389V18.5459H42.4871V18.4948C42.4871 18.4183 42.4353 18.3673 42.3575 18.3673H41.8135V19.1581H42.3057C42.4353 19.1581 42.5648 19.1326 42.6425 19.0561C42.6943 19.0051 42.772 18.9285 42.8239 18.801H42.8498L42.6943 19.3112ZM44.715 17.4234C44.7669 17.4234 44.8446 17.4234 44.9223 17.3979C45 17.3979 45.0518 17.3724 45.0777 17.3724V17.7295H45.0518V17.6785C45.0518 17.6275 45.0259 17.602 45 17.5765C44.9741 17.551 44.9223 17.5255 44.8964 17.5255H44.3005V19.1326C44.3005 19.1836 44.3264 19.2091 44.3523 19.2602C44.3783 19.2857 44.4301 19.3112 44.4819 19.3112H44.5078V19.3367H43.8601V19.3112H43.886C43.9378 19.3112 43.9897 19.2857 44.0156 19.2602C44.0415 19.2346 44.0674 19.1836 44.0674 19.1326V17.551H43.5233C43.4715 17.551 43.4456 17.5765 43.3938 17.602C43.3679 17.6275 43.342 17.6785 43.342 17.704V17.7551H43.3161V17.3979C43.342 17.3979 43.3938 17.4234 43.4715 17.4234C43.5492 17.4234 43.627 17.4489 43.6788 17.4489H44.715V17.4234ZM45.6218 19.3112V19.2857H45.6736C45.7254 19.2857 45.7772 19.2602 45.829 19.2346C45.8808 19.2091 45.8808 19.1581 45.8808 19.1071V17.6275C45.8808 17.5765 45.8549 17.551 45.829 17.4999C45.7772 17.4744 45.7254 17.4489 45.6736 17.4489H45.6218V17.4234H46.3472V17.4489H46.2954C46.2435 17.4489 46.1917 17.4744 46.1399 17.4999C46.0881 17.5255 46.0881 17.5765 46.0622 17.6275V19.1326C46.0622 19.1836 46.0881 19.2091 46.1399 19.2602C46.1917 19.2857 46.2435 19.3112 46.2954 19.3112H46.3472V19.3367H45.6218V19.3112ZM48.9637 18.5204L48.9378 18.954C48.8601 19.0816 48.7306 19.1836 48.5751 19.2602C48.4197 19.3367 48.2384 19.3622 48.057 19.3622C47.7202 19.3622 47.4871 19.2602 47.2798 19.1071C47.0985 18.9285 46.9948 18.6989 46.9948 18.3928C46.9948 18.0867 47.0985 17.8571 47.2798 17.6785C47.4612 17.5 47.7202 17.4234 48.057 17.4234C48.342 17.4234 48.6011 17.4744 48.8083 17.602L48.886 18.0612H48.8601C48.7565 17.704 48.4974 17.5255 48.057 17.5255C47.7979 17.5255 47.5907 17.602 47.4612 17.7551C47.3057 17.9081 47.228 18.1377 47.228 18.4183C47.228 18.6989 47.3057 18.903 47.4612 19.0561C47.6166 19.2091 47.8239 19.2857 48.057 19.2857C48.3161 19.2857 48.5233 19.2346 48.6529 19.1071C48.8083 18.9795 48.9119 18.801 48.9378 18.5459H48.9637V18.5204ZM50.57 18.4948C50.6736 18.5714 50.7254 18.6734 50.7254 18.8265C50.7254 18.954 50.6736 19.0816 50.57 19.1836C50.4663 19.2857 50.3368 19.3367 50.1555 19.3367C50.0518 19.3367 49.9482 19.3367 49.8446 19.3112C49.7409 19.2857 49.6632 19.2346 49.5855 19.2091C49.5855 19.1581 49.5855 19.1071 49.5855 19.0306C49.5855 18.954 49.6114 18.8775 49.6114 18.8265H49.6373C49.6114 18.954 49.6632 19.0816 49.741 19.1581C49.8187 19.2346 49.9482 19.2857 50.0777 19.2602C50.2073 19.2602 50.3109 19.2346 50.3886 19.1581C50.4663 19.1071 50.4922 19.0051 50.4922 18.903C50.4922 18.801 50.4663 18.7244 50.3886 18.6479L49.741 18.1632C49.6373 18.0867 49.5855 17.9591 49.5855 17.8316C49.5855 17.704 49.6373 17.602 49.741 17.4999C49.8446 17.3979 49.9741 17.3724 50.1296 17.3724C50.2591 17.3724 50.3627 17.3724 50.4404 17.3979H50.5441V17.7295H50.5182C50.5182 17.551 50.3886 17.4489 50.1555 17.4489C50.0518 17.4489 49.9482 17.4744 49.8964 17.5255C49.8187 17.5765 49.7928 17.653 49.7928 17.7295C49.7928 17.8316 49.8446 17.9081 49.9223 17.9846L50.57 18.4948Z" fill="#BB9F56"/>
</svg>
